# xmcd
#
# Track frame offsets: 
#        182
#        12920
#        25180
#        40097
#        54492
#        66807
#        81242
#        94927
#        107830
#        121157
#        134000
#        147750
#        161542
#        176305
#        190745
#        204857
#        219390
#        233390
#        247877
#        261042
#        273060
#        285122
#
# Disc length: 3961 seconds
#
# Revision: 2
# Processed by: cddbd v1.5.2PL0 Copyright (c) Steve Scherf et al.
# Submitted via: ExactAudioCopy v1.3
#
DISCID=1c0f7716
DTITLE=Lonnie Johnson - Blues In My Fingers: The Essential Recordings 
DTITLE=Of Lonnie Johnson
DYEAR=1994
DGENRE=Blues
TTITLE0=Mr. Johnson's Swing
TTITLE1=Mr. Johnson's Blues
TTITLE2=Four Hands Are Better Than Two
TTITLE3=Woke Up With The Blues In My Fingers
TTITLE4=Tin Can Alley Blues
TTITLE5=Blue Ghost Blues
TTITLE6=Playing With The Strings
TTITLE7=Away Down In The Alley Blues
TTITLE8=Careless Love
TTITLE9=Blues In G
TTITLE10=Two Tone Stomp
TTITLE11=Have To Change Keys (To Play These Blues)
TTITLE12=Guitar Blues
TTITLE13=She's Making Whoopee In Hell Tonight
TTITLE14=A Handful Of Riffs
TTITLE15=Blue Guitars
TTITLE16=Uncle Ned, Don't Use Your Head
TTITLE17=Winnie The Wailer
TTITLE18=Go Back To Your No Good Man
TTITLE19=Hard Times Ain't Gone Nowhere
TTITLE20=Got The Blues For The West End
TTITLE21=Swing Out Rhythm
EXTD=
EXTT0=
EXTT1=
EXTT2=
EXTT3=
EXTT4=
EXTT5=
EXTT6=
EXTT7=
EXTT8=
EXTT9=
EXTT10=
EXTT11=
EXTT12=
EXTT13=
EXTT14=
EXTT15=
EXTT16=
EXTT17=
EXTT18=
EXTT19=
EXTT20=
EXTT21=
PLAYORDER=
